<?xml version="1.0" standalone="no"?>
<!DOCTYPE svg PUBLIC "-//W3C//DTD SVG 20010904//EN"
 "http://www.w3.org/TR/2001/REC-SVG-20010904/DTD/svg10.dtd">
<svg version="1.0" xmlns="http://www.w3.org/2000/svg"
 width="512.000000pt" height="512.000000pt" viewBox="0 0 512.000000 512.000000"
 preserveAspectRatio="xMidYMid meet">
<metadata>
Created by potrace 1.14, written by Peter Selinger 2001-2017
</metadata>
<g transform="translate(0.000000,512.000000) scale(0.100000,-0.100000)"
fill="#000000" stroke="none">
<path d="M391 4438 c-18 -5 -57 -33 -85 -61 -93 -93 -87 13 -84 -1382 3 -1220
3 -1220 24 -1266 26 -56 77 -109 130 -134 37 -18 77 -19 876 -19 703 -1 838
-3 838 -15 0 -12 -25 -192 -35 -250 -2 -13 -7 -43 -11 -66 l-6 -42 -242 0
c-134 0 -260 -3 -282 -7 -58 -11 -136 -52 -177 -94 -45 -47 -135 -197 -143
-239 -3 -18 -9 -33 -13 -34 -3 0 -41 -2 -83 -3 -80 -3 -110 -16 -123 -56 -7
-22 11 -70 33 -86 24 -19 3079 -20 3103 -1 20 15 39 51 39 72 0 9 -13 30 -29
46 -28 27 -34 29 -110 29 -77 0 -81 1 -81 23 0 31 -87 181 -138 238 -50 56
-125 95 -202 106 -30 5 -157 8 -282 7 -126 0 -228 1 -228 3 0 3 -15 106 -34
233 -3 14 -7 50 -11 80 l-6 56 824 -1 c647 -1 834 1 868 11 59 18 108 61 144
125 l30 54 3 1225 c3 1398 9 1293 -83 1386 -33 35 -64 56 -90 63 -53 14 -4284
14 -4334 -1z"/>
<path d="M637 818 c-9 -5 -23 -21 -30 -36 -31 -65 13 -112 104 -112 73 0 113
28 111 80 -1 52 -29 72 -104 75 -35 2 -72 -1 -81 -7z"/>
<path d="M4345 820 c-54 -20 -65 -89 -21 -127 22 -18 39 -23 84 -23 62 0 98
17 111 54 9 24 -4 69 -25 87 -17 14 -120 20 -149 9z"/>
</g>
</svg>
